<?xml version="1.0" encoding="UTF-8"?>
<svg id="Layer_1" data-name="Layer 1" xmlns="http://www.w3.org/2000/svg" version="1.1" viewBox="0 0 841.9 595.3">
  <defs>
    <style>
      .cls-1 {
        fill: #000;
      }

      .cls-1, .cls-2, .cls-3 {
        stroke-width: 0px;
      }

      .cls-2 {
        fill: #56c4c8;
      }

      .cls-3 {
        fill: #a1dadf;
      }
    </style>
  </defs>
  <path class="cls-1" d="M313.1,313.4c-6-3.8-13.5-5.6-20.2-7.2-10-2.4-16-4.1-16-8.6s6-8.4,15.4-8.4,11.2.9,17,2.7h.1c.7.2,1.5.4,2.6.4,4.9,0,8.8-4,8.8-8.8s-2.6-7.2-6.3-8.4c-7.4-2.7-15.2-4-23.5-4s-18.7,2.7-24.5,7.7c-5.5,4.8-8.5,11.6-8.5,19.5,0,18.9,18.4,23.4,31.8,26.7,7.7,1.9,15,3.7,15,7.2s0,8.5-14.8,8.5-15-2.1-20.2-4.5c-1.4-.6-2.5-.8-3.8-.8-4.8,0-8.6,4-8.6,8.8s1.4,5.6,3.8,7.2h.2c9,5.1,18.7,7.5,29.7,7.5s18.4-2.6,24.2-7.4c5.5-4.6,8.5-11,8.5-18.3,0-8.7-3.6-15.4-10.7-19.9"/>
  <path class="cls-1" d="M381.1,307.4l20.7-18.6h.1c2.8-2.9,3.4-5.5,3.4-7.2,0-4.4-2.5-9.4-9.4-9.4s-4.4.9-6.4,2.7l-32.9,30.4v-58c0-5.3-4.5-9.7-9.7-9.7s-9.6,4.4-9.6,9.7v101.3c0,5.3,4.3,9.6,9.6,9.6s9.7-4.3,9.7-9.6v-19l10.6-9.7,25.2,34.2h0c2,2.5,4.9,4,7.8,4,5.7,0,9.7-3.9,9.7-9.4s-.7-3.9-2.1-5.8l-26.8-35.6Z"/>
  <path class="cls-1" d="M455,271.1c-9.8,0-18.7,1.9-28,5.8-3.5,1.5-5.6,4.6-5.6,8.3s3.7,8.5,8.3,8.5,1.6-.1,2.6-.4h.2c6.1-2,11.8-3.7,20-3.7,12.7,0,18,4.4,18.3,15.5h-16.3c-24.1,0-38.5,10.4-38.5,27.9s11.8,26,28,26,19.5-3,26.9-8.8c.8,4.5,4.7,8,9.5,8s9.7-4.3,9.7-9.6v-44.2c0-16.6-10.9-33.3-35.2-33.3M470.9,321.7v9.6c-4.5,4.8-12.6,10.1-21.5,10.1s-14-3.2-14-9.9,0-9.8,21-9.8h14.5Z"/>
  <path class="cls-1" d="M520,237.6c-5.4,0-9.6,4.3-9.6,9.7v101.3c0,5.3,4.3,9.6,9.6,9.6s9.7-4.2,9.7-9.6v-101.3c0-5.5-4.3-9.7-9.7-9.7"/>
  <path class="cls-1" d="M625.5,313c0-11.2-3.6-21.6-10.2-29.1-7.2-8.4-17.5-12.8-29.5-12.8s-23.3,4.8-30.4,13.8c-6.1,7.8-9.5,18.5-9.5,30.2,0,27.5,16.1,43.9,43,43.9s21.9-3.4,28.6-7.2c3.4-1.9,5.3-4.9,5.3-8,0-4.9-3.9-8.6-8.8-8.6s-2.7.3-4,.9c-4.6,2.4-10.2,4.5-19.9,4.5s-22-6.2-24.3-18h50c5.5,0,9.7-4.1,9.7-9.6M585.7,288.3c6.8,0,18.2,3.8,20.3,17.7h-40.4c2.1-13.9,13.4-17.7,20.1-17.7"/>
  <path class="cls-1" d="M685.3,271.1c-12,0-20.3,5.1-26.5,10.7v-.2c0-5.4-4.4-9.7-9.7-9.7s-9.6,4.3-9.6,9.7v67c0,5.3,4.3,9.6,9.6,9.6s9.7-4.3,9.7-9.6v-45.9c7.5-9.1,14.8-13.3,23-13.3s14.6,5.2,14.6,16.5v42.8c0,5.3,4.3,9.6,9.6,9.6s9.7-4.3,9.7-9.6v-44.3c0-19.5-12.5-33.2-30.5-33.2"/>
  <path class="cls-1" d="M767.2,271.1c-9.8,0-18.7,1.9-28,5.8-3.5,1.5-5.6,4.6-5.6,8.3s3.7,8.5,8.3,8.5,1.6-.1,2.7-.4h.2c6.1-2,11.8-3.7,20-3.7,12.7,0,18,4.4,18.3,15.5h-16.3c-24.1,0-38.5,10.4-38.5,27.9s11.8,26,28,26,19.5-3,26.9-8.8c.8,4.5,4.7,8,9.5,8s9.7-4.3,9.7-9.6v-44.2c0-16.6-10.9-33.3-35.2-33.3M783,321.7v9.6c-4.5,4.8-12.6,10.1-21.5,10.1s-14-3.2-14-9.9,0-9.8,21-9.8h14.5Z"/>
  <path class="cls-1" d="M191.1,340.1c.7-3.4,1.1-6.8,1.1-10.4v-22.2c0-27-22.1-49-49-49h-.1c-27,0-49.1,22.1-49.1,49v22.2c0,3.6.4,7,1.1,10.4h96Z"/>
  <path class="cls-1" d="M118.2,381.3h0c-3.9,0-7.1-3.2-7.1-7.1v-21.2c0-3.9,3.2-7.1,7.1-7.1s7.1,3.2,7.1,7.1v21.2c0,3.9-3.2,7.1-7.1,7.1"/>
  <path class="cls-1" d="M171,381.3h0c-3.9,0-7.1-3.2-7.1-7.1v-21.2c0-3.9,3.2-7.1,7.1-7.1s7.1,3.2,7.1,7.1v21.2c0,3.9-3.2,7.1-7.1,7.1"/>
  <path class="cls-3" d="M196.8,354.9h-106.2c-4.9,0-8.9-4-8.9-8.9s4-8.9,8.9-8.9h106.2c4.9,0,8.9,4,8.9,8.9s-4,8.9-8.9,8.9"/>
  <path class="cls-1" d="M144.6,271c-2.6,0-4.7-2.1-4.7-4.7,0-23.7-19.3-43-43-43h-5.9c-23.7,0-43,19.3-43,43s-2.1,4.7-4.7,4.7-4.7-2.1-4.7-4.7c0-28.9,23.5-52.4,52.4-52.4h5.9c28.9,0,52.4,23.5,52.4,52.4,0,2.6-2.1,4.7-4.7,4.7"/>
  <path class="cls-2" d="M125.3,309.5h0c-3.3,0-6.1-2.7-6.1-6v-8.9c0-3.3,2.7-6,6.1-6s6.1,2.7,6.1,6v8.9c0,3.3-2.7,6-6.1,6"/>
  <path class="cls-2" d="M157.9,309.5h0c-3.3,0-6.1-2.7-6.1-6v-8.9c0-3.3,2.7-6,6.1-6s6.1,2.7,6.1,6v8.9c0,3.3-2.7,6-6.1,6"/>
</svg>